<?xml version="1.0" encoding="UTF-8"?>
<svg width="64" height="64" viewBox="0 0 64 64" xmlns="http://www.w3.org/2000/svg">
  <defs>
    <linearGradient id="grad" x1="0%" y1="0%" x2="0%" y2="100%">
      <stop offset="0%" style="stop-color:#d7d4c7;stop-opacity:1"/>
      <stop offset="100%" style="stop-color:#b8b3a3;stop-opacity:1"/>
    </linearGradient>
  </defs>
  <circle cx="32" cy="32" r="30" fill="url(#grad)" stroke="#4b4a44" stroke-width="2"/>
  <path d="M32 15c-6.6 0-12 4.6-12 10.4 0 3.7 2.2 7 5.6 8.8-2.5 1.3-4.6 3.3-6 5.8-.6 1.1-.2 2.4.9 3 1.1.6 2.4.2 3-1 1.8-3.1 5.3-5.1 9.1-5.1s7.3 2 9.1 5.1c.4.7 1.2 1.1 2 1.1.4 0 .8-.1 1.1-.3 1.1-.6 1.5-1.9.9-3-1.4-2.5-3.6-4.5-6.1-5.8 3.4-1.9 5.6-5.2 5.6-8.8C44 19.6 38.6 15 32 15zm0 6c3.3 0 6 2.1 6 4.4S35.3 30 32 30s-6-2.1-6-4.6S28.7 21 32 21z" fill="#4b4a44"/>
</svg>
